<?xml version="1.0" standalone="no"?><!DOCTYPE svg PUBLIC "-//W3C//DTD SVG 1.1//EN" "http://www.w3.org/Graphics/SVG/1.1/DTD/svg11.dtd"><svg t="1609830874234" class="icon" viewBox="0 0 1024 1024" version="1.1" xmlns="http://www.w3.org/2000/svg" p-id="7885" xmlns:xlink="http://www.w3.org/1999/xlink" width="81" height="81"><defs><style type="text/css"></style></defs><path d="M734.9 196.3H447.4l90.9-90.5c29.3-29 76.5-29 105.7 0l90.9 90.5zM736 512.4h224V345c0-41.1-33.4-74.4-74.7-74.4H138.7C97.4 270.7 64 304 64 345v520.6c0 41.1 33.4 74.4 74.7 74.4h746.7c41.2 0 74.7-33.3 74.7-74.4V698.3H736c-51.3 0-93.3-41.8-93.3-93 0-51.1 42-92.9 93.3-92.9z" p-id="7886" fill="#cdcdcd"></path><path d="M689.3 605a46.7 46.5 0 1 0 93.4 0 46.7 46.5 0 1 0-93.4 0Z" p-id="7887" fill="#cdcdcd"></path></svg>