<?xml version="1.0" standalone="no"?><!DOCTYPE svg PUBLIC "-//W3C//DTD SVG 1.1//EN" "http://www.w3.org/Graphics/SVG/1.1/DTD/svg11.dtd"><svg t="1607840954088" class="icon" viewBox="0 0 1029 1024" version="1.1" xmlns="http://www.w3.org/2000/svg" p-id="3177" xmlns:xlink="http://www.w3.org/1999/xlink" width="81.3955078125" height="81"><defs><style type="text/css"></style></defs><path d="M991.996918 255.9992h-959.997a31.9999 31.9999 0 0 1 0-63.9998h959.997a31.9999 31.9999 0 1 1 0 63.9998z" p-id="3178"></path><path d="M714.237786 1023.9968H310.399048a95.9997 95.9997 0 0 1-94.719704-80.639748L96.639716 230.39928l63.9998-10.239968L279.039146 934.39708a31.9999 31.9999 0 0 0 31.359902 26.879916h403.838738a32.639898 32.639898 0 0 0 31.9999-26.879916l118.39963-714.237768 63.9998 10.239968-119.039628 714.237768A95.9997 95.9997 0 0 1 714.237786 1023.9968z" p-id="3179"></path><path d="M351.998918 225.279296v-127.9996a63.9998 63.9998 0 0 1 63.9998-63.9998h191.9994a63.9998 63.9998 0 0 1 63.9998 63.9998v127.9996" fill="#FFFFFF" p-id="3180"></path><path d="M703.997818 225.279296h-63.9998v-127.9996a31.9999 31.9999 0 0 0-31.9999-31.9999h-191.9994a31.9999 31.9999 0 0 0-31.9999 31.9999v127.9996h-63.9998v-127.9996A95.9997 95.9997 0 0 1 415.998718 0h191.9994a95.9997 95.9997 0 0 1 95.9997 95.9997zM385.278814 869.757282a32.639898 32.639898 0 0 1-31.9999-28.79991l-33.279896-356.478886A32.639898 32.639898 0 0 1 349.438926 447.9986a31.9999 31.9999 0 0 1 34.559892 28.79991L417.278714 831.9974a31.9999 31.9999 0 0 1-28.79991 35.19989zM671.997918 869.757282a32.639898 32.639898 0 0 1-31.9999-37.759882l33.279896-356.478886A32.639898 32.639898 0 0 1 709.7578 447.9986a31.9999 31.9999 0 0 1 28.79991 35.19989l-33.279896 356.478886a31.359902 31.359902 0 0 1-33.279896 30.079906zM528.638366 895.9972a31.9999 31.9999 0 0 1-31.9999-31.9999v-511.9984a31.9999 31.9999 0 0 1 31.9999-31.9999 31.9999 31.9999 0 0 1 31.9999 31.9999v511.9984a31.9999 31.9999 0 0 1-31.9999 31.9999z" p-id="3181"></path></svg>