<?xml version="1.0" standalone="no"?><!DOCTYPE svg PUBLIC "-//W3C//DTD SVG 1.1//EN" "http://www.w3.org/Graphics/SVG/1.1/DTD/svg11.dtd"><svg t="1607844398743" class="icon" viewBox="0 0 1117 1024" version="1.1" xmlns="http://www.w3.org/2000/svg" p-id="7662" xmlns:xlink="http://www.w3.org/1999/xlink" width="88.3564453125" height="81"><defs><style type="text/css"></style></defs><path d="M456.005818 0a93.090909 93.090909 0 0 1 63.162182 24.669091l97.745455 90.298182a93.090909 93.090909 0 0 0 63.162181 24.669091h297.425455a139.636364 139.636364 0 0 1 139.403636 131.444363L1117.090909 279.272727v605.090909a139.636364 139.636364 0 0 1-139.636364 139.636364h-837.818181a139.636364 139.636364 0 0 1-139.636364-139.636364V139.636364a139.636364 139.636364 0 0 1 139.636364-139.636364z m288.768 438.178909a46.545455 46.545455 0 0 0-46.545454 46.545455V512l-372.363637 0.046545a46.545455 46.545455 0 0 0 0 93.09091h372.363637v27.275636a46.545455 46.545455 0 0 0 79.453091 32.907636l73.82109-73.821091a46.545455 46.545455 0 0 0 0-65.815272l-73.82109-73.821091a46.545455 46.545455 0 0 0-32.907637-13.637818z" fill="#008df0" p-id="7663"></path></svg>