<?xml version="1.0" standalone="no"?><!DOCTYPE svg PUBLIC "-//W3C//DTD SVG 1.1//EN" "http://www.w3.org/Graphics/SVG/1.1/DTD/svg11.dtd"><svg t="1607433877678" class="icon" viewBox="0 0 1024 1024" version="1.1" xmlns="http://www.w3.org/2000/svg" p-id="16038" xmlns:xlink="http://www.w3.org/1999/xlink" width="81" height="81"><defs><style type="text/css"></style></defs><path d="M944.8 709.6H548.7V625h-76.3v84.5H76.2c-8.1 0-14.6 6.5-14.6 14.6s6.5 14.6 14.6 14.6h396.2v208.9h76.3V738.8h396.2c8.1 0 14.6-6.5 14.6-14.6-0.1-8.1-6.6-14.6-14.7-14.6z" fill="#333E48" p-id="16039"></path><path d="M472.4 625h76.3v66.6h-76.3zM472.4 790.6h76.3v46.2h-76.3z" fill="" p-id="16040"></path><path d="M379.4 724.2v65.4c0 8.1 6.6 14.7 14.7 14.7h232.8c8.1 0 14.7-6.6 14.7-14.7v-65.4H379.4z" fill="#D1D3D3" p-id="16041"></path><path d="M510.5 764.2m-15.6 0a15.6 15.6 0 1 0 31.2 0 15.6 15.6 0 1 0-31.2 0Z" fill="#A4A9AD" p-id="16042"></path><path d="M437.5 764.2m-15.6 0a15.6 15.6 0 1 0 31.2 0 15.6 15.6 0 1 0-31.2 0Z" fill="#A4A9AD" p-id="16043"></path><path d="M583.6 764.2m-15.6 0a15.6 15.6 0 1 0 31.2 0 15.6 15.6 0 1 0-31.2 0Z" fill="#A4A9AD" p-id="16044"></path><path d="M379.4 724.2h262.2v40H379.4z" fill="" p-id="16045"></path><path d="M230.8 208.5c-8.1 0-14.6-6.5-14.6-14.6v-88.8c0-8.1 6.5-14.6 14.6-14.6s14.6 6.5 14.6 14.6v88.8c0 8-6.6 14.6-14.6 14.6z" fill="#A4A9AD" p-id="16046"></path><path d="M216.2 122.8h29.2v30.6h-29.2z" fill="" p-id="16047"></path><path d="M310.3 90.7c0-5.9-4.8-10.7-10.7-10.7H161.9c-5.9 0-10.7 4.8-10.7 10.7v28.7c0 5.9 4.8 10.7 10.7 10.7h137.7c5.9 0 10.7-4.8 10.7-10.7V90.7z" fill="#333E48" p-id="16048"></path><path d="M510.5 208.5c-8.1 0-14.6-6.5-14.6-14.6v-88.8c0-8.1 6.5-14.6 14.6-14.6s14.6 6.5 14.6 14.6v88.8c0 8-6.5 14.6-14.6 14.6z" fill="#A4A9AD" p-id="16049"></path><path d="M495.9 122.8h29.2v30.6h-29.2z" fill="" p-id="16050"></path><path d="M590.1 90.7c0-5.9-4.8-10.7-10.7-10.7H441.7c-5.9 0-10.7 4.8-10.7 10.7v28.7c0 5.9 4.8 10.7 10.7 10.7h137.7c5.9 0 10.7-4.8 10.7-10.7V90.7z" fill="#333E48" p-id="16051"></path><path d="M790.2 208.5c-8.1 0-14.6-6.5-14.6-14.6v-88.8c0-8.1 6.5-14.6 14.6-14.6s14.6 6.5 14.6 14.6v88.8c0 8-6.5 14.6-14.6 14.6z" fill="#A4A9AD" p-id="16052"></path><path d="M775.6 122.8h29.2v30.6h-29.2z" fill="" p-id="16053"></path><path d="M869.8 90.7c0-5.9-4.8-10.7-10.7-10.7H721.4c-5.9 0-10.7 4.8-10.7 10.7v28.7c0 5.9 4.8 10.7 10.7 10.7h137.7c5.9 0 10.7-4.8 10.7-10.7V90.7z" fill="#333E48" p-id="16054"></path><path d="M944.8 206.1c0-11.8-9.7-21.5-21.5-21.5H97.7c-11.8 0-21.5 9.7-21.5 21.5v441.2c0 11.8 9.7 21.5 21.5 21.5h825.7c11.8 0 21.5-9.7 21.5-21.5l-0.1-441.2z" fill="#00B3E3" p-id="16055"></path><path d="M520.6 668.7h402.7c11.8 0 21.5-9.7 21.5-21.5V244.5c-234.2 0-424.2 190-424.2 424.2z" fill="#0071CE" p-id="16056"></path><path d="M436 339H184.7c-8.1 0-14.6-6.5-14.6-14.6s6.5-14.6 14.6-14.6H436c8.1 0 14.6 6.5 14.6 14.6S444.1 339 436 339zM362.2 405.1H184.7c-8.1 0-14.6-6.5-14.6-14.6s6.5-14.6 14.6-14.6h177.6c8.1 0 14.6 6.5 14.6 14.6-0.1 8-6.6 14.6-14.7 14.6z" fill="#FFFFFF" p-id="16057"></path></svg>