<?xml version="1.0" standalone="no"?><!DOCTYPE svg PUBLIC "-//W3C//DTD SVG 1.1//EN" "http://www.w3.org/Graphics/SVG/1.1/DTD/svg11.dtd"><svg t="1609831425124" class="icon" viewBox="0 0 1024 1024" version="1.1" xmlns="http://www.w3.org/2000/svg" p-id="25475" xmlns:xlink="http://www.w3.org/1999/xlink" width="128" height="128"><defs><style type="text/css"></style></defs><path d="M593.8 251.6l44.7-80.4h-90.3l-44.6 80.4zM879.6 356.5v362.3c0 29.6-24 53.6-53.6 53.6H198c-29.6 0-53.6-24-53.6-53.6V356.5h-75c-1.8 0-3.6-0.1-5.4-0.3v389.4c0 59.2 48 107.2 107.2 107.2h681.6c59.2 0 107.2-48 107.2-107.2V356.2c-1.8 0.2-3.6 0.3-5.4 0.3h-75zM737.4 251.6l44.6-80.4h-90.2l-44.7 80.4zM826 251.6c11.1 0 21.5 3.4 30 9.2h98.5c1.3 0 2.7 0.1 4 0.2-8.3-50.9-52.5-89.8-105.8-89.8h-17.5l-44.7 80.4H826zM158.1 260.8l49.8-89.6h-36.7c-53.3 0-97.5 38.9-105.8 89.8 1.3-0.1 2.7-0.2 4-0.2h88.7zM450.3 251.6l44.7-80.4h-90.3L360 251.6zM306.8 251.6l44.6-80.4h-90.3l-44.6 80.4z" fill="#cdcdcd" p-id="25476"></path><path d="M213.1 356.5v293.2c0 23.1 18.7 41.9 41.8 41.9H745c23.1 0 41.8-18.8 41.8-41.9V356.5H213.1z m349.8 168.8c-7.1 5.4-75.9 63.7-80 66.9-5.2 3.9-24.7 8.4-29.8-9.1-0.8-2.7-0.4-75.9-0.4-75.9s-0.4-63 0.9-66.4c6.9-18.2 24.7-11.9 29.1-8.6 6 4.4 75.1 63 80.2 67.1 10.5 7.9 12.9 14.2 0 26z" fill="#cdcdcd" p-id="25477"></path></svg>